<?xml version="1.0" encoding="utf-8"?>

<svg version="1.0" id="sydney-opera-house" focusable="false"
	 xmlns="http://www.w3.org/2000/svg" xmlns:xlink="http://www.w3.org/1999/xlink" x="0px" y="0px" viewBox="0 0 82 41"
	 style="enable-background:new 0 0 82 41;" xml:space="preserve">
<path d="M31.1,18.6c-4.8-3.7-14.4-5.2-21.2-4.8c5.9,6.2,14.4,23.7,15.3,25.6C27.8,34.4,30.7,21.3,31.1,18.6z M16.2,23.2
	C12.5,21,4.7,19.9,0.5,20.1c3.2,3.8,8.4,10.6,11.1,16.3C12.8,33.5,15.4,25.9,16.2,23.2z M56,21.8c0.1-0.1,0.3-0.3,0.4-0.4
	C49.1,12.6,38.8,4.2,23.6,1.5c3.7,5.2,11.5,25.6,14.9,38C44.3,34.7,52.8,24.8,56,21.8z M81.5,14.1c-11.2-0.3-17.5,1.4-25.1,7.3
	C61.5,27.5,65,33.8,68,38.5C72.9,26,76.9,20.4,81.5,14.1z"/>
</svg>
